<svg width="64" height="64" viewBox="0 0 64 64" fill="none" xmlns="http://www.w3.org/2000/svg">
<g id="Group">
<path id="Vector" d="M14.376 24.5731C16.6758 26.8728 20.439 26.8728 22.7736 24.5731L34.377 12.9697C39.7779 7.56876 43.1579 9.20647 43.1579 9.20647L36.4676 2.48141C34.1679 0.181652 30.4046 0.181652 28.07 2.48141L14.376 16.1754C12.0414 18.51 12.0414 22.2385 14.376 24.5731Z" fill="#006BFF"/>
<path id="Vector_2" d="M62.1483 28.1969L48.4543 14.5029C46.1545 12.2031 42.3913 12.2031 40.0567 14.5029C37.7569 16.8027 37.7569 20.5659 40.0567 22.9005L51.66 34.5039C57.061 39.9048 55.4233 43.2847 55.4233 43.2847L62.1135 36.5945C64.4829 34.2599 64.4829 30.5315 62.1483 28.1969Z" fill="#006BFF"/>
<path id="Vector_3" d="M50.1617 40.2185C47.8619 37.9187 44.0987 37.9187 41.7641 40.2185L30.1607 51.8218C24.7598 57.2228 21.3798 55.5851 21.3798 55.5851L28.07 62.2753C30.3698 64.575 34.133 64.575 36.4676 62.2753L50.1617 48.5812C52.4614 46.2815 52.4614 42.5182 50.1617 40.2185Z" fill="#006BFF"/>
<path id="Vector_4" d="M24.5507 50.1492C26.8505 47.8494 26.8505 44.0862 24.5507 41.7516L12.9474 30.1482C7.54641 24.7473 9.18412 21.3673 9.18412 21.3673L2.49391 28.0575C0.194149 30.3573 0.194149 34.1205 2.49391 36.4551L16.1879 50.1492C18.4877 52.4838 22.2509 52.4838 24.5507 50.1492Z" fill="#006BFF"/>
</g>
</svg>
